<svg width="73" height="140" viewBox="0 0 73 140" fill="none" xmlns="http://www.w3.org/2000/svg">
<path d="M30.8967 76C33.6653 76 36.0326 78.5812 36.0326 81.6V94.0814C38.0304 92.0389 41.8645 91.7881 44.3463 94.8687C47.0216 93.0828 50.5593 94.6004 51.6489 96.925C57.4076 95.8032 60 99.6683 60 106C60 106.343 59.9762 107.66 59.9771 108C59.9968 115.746 56.3367 117.612 55.4871 123.466C55.2753 124.925 54.0936 126 52.7093 126H32.6087L32.6086 126C30.4563 125.998 28.4029 124.674 27.4705 122.442C25.9478 118.831 21.7239 110.515 18.4092 109C16.277 108.025 15.0009 106.327 15 104C14.9984 99.7222 19.113 96.781 22.8408 98.4851C23.8204 98.933 24.7943 99.5241 25.7609 100.254V81.6C25.7609 78.6687 28.1682 76 30.8967 76ZM30.9375 128H53.4375C54.9908 128 56.25 129.343 56.25 131V137C56.25 138.657 54.9908 140 53.4375 140H30.9375C29.3842 140 28.125 138.657 28.125 137V131C28.125 129.343 29.3842 128 30.9375 128ZM50.625 131.5C49.3305 131.5 48.2812 132.619 48.2812 134C48.2812 135.381 49.3305 136.5 50.625 136.5C51.9195 136.5 52.9688 135.381 52.9688 134C52.9688 132.619 51.9195 131.5 50.625 131.5Z" fill="#D81C0E"/>
<path fill-rule="evenodd" clip-rule="evenodd" d="M26.0417 0.709961C23.9697 0.709961 21.9825 1.29027 20.5174 2.32323C19.0523 3.35619 18.2292 4.75719 18.2292 6.21801H7.8125C5.7405 6.21801 3.75336 6.79833 2.28823 7.83129C0.823099 8.86425 0 10.2652 0 11.7261V68.6426C0 70.1034 0.823099 71.5044 2.28823 72.5374C3.75336 73.5704 5.7405 74.1507 7.8125 74.1507H65.1042C67.1762 74.1507 69.1633 73.5704 70.6284 72.5374C72.0936 71.5044 72.9167 70.1034 72.9167 68.6426V11.7261C72.9167 10.2652 72.0936 8.86425 70.6284 7.83129C69.1633 6.79833 67.1762 6.21801 65.1042 6.21801H54.6875C54.6875 4.75719 53.8644 3.35619 52.3993 2.32323C50.9341 1.29027 48.947 0.709961 46.875 0.709961H26.0417ZM23.4375 6.21801C23.4375 5.73107 23.7119 5.26407 24.2002 4.91975C24.6886 4.57543 25.351 4.382 26.0417 4.382H46.875C47.5657 4.382 48.228 4.57543 48.7164 4.91975C49.2048 5.26407 49.4792 5.73107 49.4792 6.21801V9.89005C49.4792 10.377 49.2048 10.844 48.7164 11.1883C48.228 11.5326 47.5657 11.7261 46.875 11.7261H26.0417C25.351 11.7261 24.6886 11.5326 24.2002 11.1883C23.7119 10.844 23.4375 10.377 23.4375 9.89005V6.21801ZM15.625 30.0862C14.9343 30.0862 14.272 30.2797 13.7836 30.624C13.2952 30.9683 13.0208 31.4353 13.0208 31.9223C13.0208 32.4092 13.2952 32.8762 13.7836 33.2205C14.272 33.5648 14.9343 33.7583 15.625 33.7583H33.8542C34.5448 33.7583 35.2072 33.5648 35.6956 33.2205C36.184 32.8762 36.4583 32.4092 36.4583 31.9223C36.4583 31.4353 36.184 30.9683 35.6956 30.624C35.2072 30.2797 34.5448 30.0862 33.8542 30.0862H15.625ZM13.0208 22.7422C13.0208 22.2552 13.2952 21.7882 13.7836 21.4439C14.272 21.0996 14.9343 20.9062 15.625 20.9062H55.9896C56.6802 20.9062 57.3426 21.0996 57.831 21.4439C58.3194 21.7882 58.5937 22.2552 58.5937 22.7422C58.5937 23.2291 58.3194 23.6961 57.831 24.0404C57.3426 24.3848 56.6802 24.5782 55.9896 24.5782H15.625C14.9343 24.5782 14.272 24.3848 13.7836 24.0404C13.2952 23.6961 13.0208 23.2291 13.0208 22.7422ZM13.0208 44.7744C13.0208 44.2874 13.2952 43.8204 13.7836 43.4761C14.272 43.1318 14.9343 42.9384 15.625 42.9384H26.0417C26.7323 42.9384 27.3947 43.1318 27.8831 43.4761C28.3715 43.8204 28.6458 44.2874 28.6458 44.7744V52.1185C28.6458 52.6054 28.3715 53.0724 27.8831 53.4167C27.3947 53.761 26.7323 53.9545 26.0417 53.9545H15.625C14.9343 53.9545 14.272 53.761 13.7836 53.4167C13.2952 53.0724 13.0208 52.6054 13.0208 52.1185V44.7744ZM46.875 52.1185C48.947 52.1185 50.9341 51.5381 52.3993 50.5052C53.8644 49.4722 54.6875 48.0712 54.6875 46.6104C54.6875 45.1496 53.8644 43.7486 52.3993 42.7156C50.9341 41.6827 48.947 41.1023 46.875 41.1023C44.803 41.1023 42.8159 41.6827 41.3507 42.7156C39.8856 43.7486 39.0625 45.1496 39.0625 46.6104C39.0625 48.0712 39.8856 49.4722 41.3507 50.5052C42.8159 51.5381 44.803 52.1185 46.875 52.1185ZM31.25 60.3805C31.25 56.4955 41.6589 54.5383 46.875 54.5383C52.0911 54.5383 62.5 56.4955 62.5 60.3805V64.9706H31.25V60.3805Z" fill="#D81C0E"/>
</svg>
